<svg xmlns="http://www.w3.org/2000/svg" viewBox="0 0 32 32">
  <rect width="32" height="32" rx="7" fill="#1c1917"/>
  <path fill="#fafaf9" d="M12.73 27Q9.41 27 7.45 25.18Q5.49 23.36 5.49 20.1V18.06H9.56V20.1Q9.56 21.55 10.36 22.36Q11.16 23.18 12.61 23.18Q13.97 23.18 14.72 22.38Q15.48 21.58 15.48 20.1V5H19.54V20.1Q19.54 23.46 17.73 25.23Q15.91 27 12.73 27Z"/>
  <path fill="#c2410c" d="M23.61 27Q22.35 27 21.5 26.18Q20.65 25.37 20.65 24.07Q20.65 22.78 21.5 21.96Q22.35 21.15 23.61 21.15Q24.84 21.15 25.68 21.96Q26.51 22.78 26.51 24.07Q26.51 25.37 25.68 26.18Q24.84 27 23.61 27Z"/>
</svg>
